# AST/ASF file generated using VICON BodyLanguage
# -----------------------------------------------
:version 1.10
:name VICON
:units
  mass 1.0
  length 0.45
  angle deg
:documentation
   .ast/.asf automatically generated from VICON data using
   VICON BodyBuilder and BodyLanguage model FoxedUp or BRILLIANT.MOD
:root
   order TX TY TZ RX RY RZ
   axis XYZ
   position 0 0 0  
   orientation 0 0 0 
:bonedata
  begin
     id 1 
     name lhipjoint
     direction 0.440178 -0.822639 0.359871 
     length 2.53113 
     axis 0 0 0  XYZ
  end
  begin
     id 2 
     name lfemur
     direction 0.34202 -0.939693 0  
     length 7.88132  
     axis 0 0 20  XYZ
    dof rx ry rz
    limits (-160.0 20.0)
           (-70.0 70.0)
           (-60.0 70.0)
  end
  begin
     id 3 
     name ltibia
     direction 0.34202 -0.939693 0   
     length 8.43783   
     axis 0 0 20   XYZ
    dof rx
    limits (-10.0 170.0)
  end
  begin
     id 4 
     name lfoot
     direction 0.0886351 -0.243523 0.965837   
     length 2.63414   
     axis -90 7.62852e-016 20   XYZ
    dof rx rz
    limits (-45.0 90.0)
           (-70.0 20.0)
  end
  begin
     id 5 
     name ltoes
     direction 1.53703e-011 -4.21717e-011 1   
     length 1.31427   
     axis -90 7.62852e-016 20   XYZ
    dof rx
    limits (-90.0 20.0)
  end
  begin
     id 6 
     name rhipjoint
     direction -0.399779 -0.839773 0.367367   
     length 2.47948  
     axis 0 0 0  XYZ 
  end
  begin
     id 7 
     name rfemur
     direction -0.34202 -0.939693 0   
     length 7.74806   
     axis 0 0 -20   XYZ
    dof rx ry rz
    limits (-160.0 20.0)
           (-70.0 70.0)
           (-70.0 60.0)
  end
  begin
     id 8 
     name rtibia
     direction -0.34202 -0.939693 0   
     length 8.74432   
     axis 0 0 -20   XYZ
    dof rx
    limits (-10.0 170.0)
 end
 begin
     id 9 
     name rfoot
     direction -0.108514 -0.298139 0.948334   
     length 2.66102  
     axis -90 -7.62852e-016 -20   XYZ
    dof rx rz
    limits (-45.0 90.0)
           (-20.0 70.0)
  end
  begin
     id 10 
     name rtoes
     direction -1.53392e-011 -4.22077e-011 1   
     length 1.31983   
     axis -90 -7.62852e-016 -20   XYZ
    dof rx
    limits (-90.0 20.0)
  end
  begin
     id 11 
     name lowerback
     direction 0.0113257 0.999866 0.0118602   
     length 2.58694   
     axis 0 0 0   XYZ
    dof rx ry rz
    limits (-20.0 45.0)
           (-30.0 30.0)
           (-30.0 30.0)
  end
  begin
     id 12 
     name upperback
     direction -0.0164747 0.995193 -0.0965375   
     length 2.52368   
     axis 0 0 0   XYZ
    dof rx ry rz
    limits (-20.0 45.0)
           (-30.0 30.0)
           (-30.0 30.0)
  end
  begin
     id 13 
     name thorax
     direction -0.0194301 0.99433 -0.104552   
     length 2.56099   
     axis 0 0 0   XYZ
    dof rx ry rz
    limits (-20.0 45.0)
           (-30.0 30.0)
           (-30.0 30.0)
  end
  begin
     id 14 
     name lowerneck
     direction 0.0148543 0.995587 -0.092657   
     length 1.71582   
     axis 0 0 0   XYZ
    dof rx ry rz
    limits (-20.0 45.0)
           (-30.0 30.0)
           (-30.0 30.0)
  end
  begin
     id 15 
     name upperneck
     direction -0.0135467 0.993656 -0.111639   
     length 1.68937   
     axis 0 0 0   XYZ
    dof rx ry rz
    limits (-20.0 45.0)
           (-30.0 30.0)
           (-30.0 30.0)
  end
  begin
     id 16
     name head
     direction -0.00615349 0.999547 -0.029448  
     length 1.7462  
     axis 0 0 0   XYZ
    dof rx ry rz
    limits (-20.0 45.0)
           (-30.0 30.0)
           (-30.0 30.0)
  end
  begin
     id 17 
     name lclavicle
     direction 0.988267 0.149885 0.0293713  
     length 4.47222  
     axis 0 0 0   XYZ
    dof ry rz
    limits (-20.0 10.0)
           (0.0 20.0)
  end
  begin
     id 18 
     name lhumerus
     direction 1 -4.48986e-011 -1.14833e-027   
     length 5.37148   
     axis 180 -30 -90   XYZ
    dof rx ry rz
    limits (-60.0 90.0)
           (-90.0 90.0)
           (-90.0 90.0)
  end
  begin
     id 19
     name lradius
     direction 0.999998 0.00170963 -0.000987055   
     length 3.94212   
     axis 180 -30 -90   XYZ
    dof rx
    limits (-10.0 170.0)
  end
  begin
     id 20
     name lwrist
     direction 0.999998 7.53149e-005 -0.00194706   
     length 1.97106   
     axis 4.65056e-015 90 90   XYZ
    dof ry
    limits (-180.0 0.0)
 end
  begin
     id 21 
     name lhand
     direction 1 -4.48973e-011 -1.31746e-026   
     length 1.17917   
     axis 8.4065e-015 90 90   XYZ
    dof rx rz
    limits (-90.0 90.0)
           (-45.0 45.0)
  end
  begin
     id 22 
     name lfingers
     direction 1 -4.49107e-011 -2.63492e-026   
     length 0.950679   
     axis 1.6813e-014 90 90   XYZ
    dof rx
    limits (0.0 90.0)
  end
  begin
     id 23
     name lthumb
     direction 0.707107 -6.35048e-011 0.707107   
     length 1.36499   
     axis -90 45 2.85299e-015   XYZ
    dof rx rz
    limits (-45.0 45.0)
           (-45.0 45.0)
  end
  begin
     id 24 
     name rclavicle
     direction -0.996699 0.0642895 -0.0495725   
     length 4.62611  
     axis 0 0 0   XYZ 
    dof ry rz
    limits (-10.0 20.0)
           (-20.0 0.0)
  end
  begin
     id 25 
     name rhumerus
     direction -1 -4.48919e-011 -2.41059e-027  
     length 5.4981   
     axis 180 30 90   XYZ
    dof rx ry rz
    limits (-90.0 60.0)
           (-90.0 90.0)
           (-90.0 90.0)
  end
  begin
     id 26 
     name rradius
     direction -0.999999 0.00118101 -0.000681858   
     length 3.48381   
     axis 180 30 90   XYZ
    dof rx
    limits (-10.0 170.0)
  end
  begin
     id 27 
     name rwrist
     direction -0.999999 0.000321823 -0.00132288   
     length 1.7419   
     axis 4.65056e-015 -90 -90   XYZ
    dof ry
    limits (-180.0 0.0)
  end
  begin
     id 28
     name rhand
     direction -1 -4.49022e-011 -1.31746e-026   
     length 1.34932   
     axis 8.4065e-015 -90 -90   XYZ
    dof rx rz
    limits (-90.0 90.0)
           (-45.0 45.0)
  end
  begin
     id 29
     name rfingers
     direction -1 -4.49178e-011 -2.63492e-026   
     length 1.08785   
     axis 1.6813e-014 -90 -90   XYZ
    dof rx
    limits (0.0 90.0)
  end
  begin
     id 30
     name rthumb
     direction -0.707107 -6.34713e-011 0.707107   
     length 1.56195   
     axis -90 -45 -2.85299e-015   XYZ
    dof rx rz
    limits (-45.0 45.0)
           (-45.0 45.0)
  end
:hierarchy
  begin
    root lhipjoint rhipjoint lowerback
    lhipjoint lfemur
    lfemur ltibia
    ltibia lfoot
    lfoot ltoes
    rhipjoint rfemur
    rfemur rtibia
    rtibia rfoot
    rfoot rtoes
    lowerback upperback
    upperback thorax
    thorax lowerneck lclavicle rclavicle
    lowerneck upperneck
    upperneck head
    lclavicle lhumerus
    lhumerus lradius
    lradius lwrist
    lwrist lhand lthumb
    lhand lfingers
    rclavicle rhumerus
    rhumerus rradius
    rradius rwrist
    rwrist rhand rthumb
    rhand rfingers
  end

#!OML:ASF X:\für Bonn\!DataBase\2005_08_10_Bjorn_Final\c3d\bjorn.ASF
:FULLY-SPECIFIED
:DEGREES
1
root -19.1954 19.1279 23.0927 170.965 48.9573 -542.219
lowerback 2.2674 -2.29132 8.19384
upperback 12.5134 -2.58947 3.25645
thorax 12.0438 -0.128362 -1.09324
lowerneck -2.55028 3.73929 3.50306
upperneck 2.97341 5.47097 -11.1174
head 1.8781 2.6605 -4.15786
rclavicle -1.00983e-013 2.8625e-014
rhumerus -18.3328 4.43532 -89.1597
rradius 47.856
rwrist -2.07516
rhand -22.2611 20.7028
rfingers 7.12502
rthumb 4.15666 -9.2364
lclavicle -1.00983e-013 2.8625e-014
lhumerus -26.1263 -4.99419 89.7488
lradius 24.9815
lwrist -25.4222
lhand -29.9148 -18.6652
lfingers 7.12502
lthumb -3.23521 11.29
rfemur -5.91751 -3.43628 17.242
rtibia 31.3263
rfoot -16.0167 9.90262
rtoes -4.12149
lfemur -36.2033 14.7845 -14.868
ltibia 92.0269
lfoot -6.02843 3.72334
ltoes -16.6528
2
root -19.165 19.1162 23.0779 170.852 48.8957 -542.183
lowerback 2.42422 -2.27435 8.10238
upperback 12.5345 -2.53704 3.22697
thorax 11.9768 -0.110031 -1.0679
lowerneck -2.51373 3.70826 3.50768
upperneck 3.00647 5.43077 -11.0944
head 1.87814 2.64086 -4.15253
rclavicle 5.64548e-014 -9.85972e-014
rhumerus -18.1906 4.79999 -89.2363
rradius 47.6413
rwrist -2.08053
rhand -22.1534 20.7079
rfingers 7.12502
rthumb 4.26066 -9.22927
lclavicle 5.64548e-014 -9.85972e-014
lhumerus -26.106 -4.79606 89.6535
lradius 24.7134
lwrist -25.6681
lhand -29.915 -18.7785
lfingers 7.12502
lthumb -3.23542 11.1767
rfemur -5.71205 -3.37461 17.2956
rtibia 31.4768
rfoot -16.2951 9.77993
rtoes -3.95745
lfemur -36.8412 14.8951 -14.9315
ltibia 91.403
lfoot -6.31163 4.16437
ltoes -17.7135
3
root -19.1333 19.1047 23.0631 170.758 48.832 -542.119
lowerback 2.57517 -2.26371 8.00483
upperback 12.5583 -2.49426 3.21055
thorax 11.9167 -0.097113 -1.02574
lowerneck -2.42467 3.67602 3.41501
upperneck 2.97484 5.38405 -11.0135
head 1.84071 2.62071 -4.10813
rclavicle -4.92986e-014 4.77083e-014
rhumerus -18.0713 5.16037 -89.3045
rradius 47.4663
rwrist -2.04934
rhand -22.0479 20.6938
rfingers 7.12502
rthumb 4.36255 -9.24126
lclavicle -4.92986e-014 4.77083e-014
lhumerus -26.0671 -4.46905 89.5344
lradius 24.4331
lwrist -25.9918
lhand -29.9512 -18.8749
lfingers 7.12502
lthumb -3.27035 11.0798
rfemur -5.48525 -3.32499 17.371
rtibia 31.5984
rfoot -16.5672 9.69581
rtoes -3.83745
lfemur -37.4306 14.9922 -14.9651
ltibia 90.6851
lfoot -6.48887 4.69868
ltoes -18.7381
4
root -19.1009 19.0937 23.0484 170.664 48.7571 -542.081
lowerback 2.71725 -2.24428 7.87518
upperback 12.5832 -2.44009 3.18887
thorax 11.8645 -0.0816208 -0.971292
lowerneck -2.40356 3.64338 3.36455
upperneck 2.9951 5.33968 -10.9446
head 1.83521 2.59861 -4.07535
rclavicle 8.98507e-014 4.77083e-014
rhumerus -17.953 5.52797 -89.3813
rradius 47.3027
rwrist -2.04146
rhand -21.9808 20.6662
rfingers 7.12502
rthumb 4.42729 -9.26757
lclavicle 8.98507e-014 4.77083e-014
lhumerus -26.0167 -4.2565 89.4297
lradius 24.1907
lwrist -26.1796
lhand -29.9163 -18.9068
lfingers 7.12502
lthumb -3.23661 11.0484
rfemur -5.26839 -3.29601 17.4279
rtibia 31.7038
rfoot -16.8186 9.60316
rtoes -3.69793
lfemur -37.9968 15.0138 -14.9938
ltibia 89.8566
lfoot -6.57493 5.26991
ltoes -19.347
5
root -19.0676 19.0845 23.0335 170.615 48.694 -541.995
lowerback 2.85061 -2.22232 7.79324
upperback 12.5945 -2.38629 3.15627
thorax 11.8002 -0.0621914 -0.955697
lowerneck -2.29205 3.60679 3.29888
upperneck 2.96047 5.2823 -10.829
head 1.79166 2.5738 -4.02465
rclavicle 8.0309e-014 3.18055e-015
rhumerus -17.8759 5.8431 -89.4998
rradius 47.177
rwrist -2.03851
rhand -21.8694 20.6022
rfingers 7.12502
rthumb 4.53484 -9.3293
lclavicle 8.0309e-014 3.18055e-015
lhumerus -26.0102 -4.01322 89.2919
lradius 23.9755
lwrist -26.4112
lhand -29.9076 -18.9378
lfingers 7.12502
lthumb -3.2282 11.0175
rfemur -5.04856 -3.25654 17.5244
rtibia 31.7881
rfoot -17.0507 9.48852
rtoes -3.66145
lfemur -38.5044 15.0032 -14.9464
ltibia 88.9244
lfoot -6.64831 5.7559
ltoes -19.0735
6
root -19.0322 19.0753 23.0183 170.553 48.6459 -541.909
lowerback 2.97914 -2.19406 7.66011
upperback 12.6333 -2.32214 3.14858
thorax 11.7742 -0.0409596 -0.88335
lowerneck -2.25542 3.56703 3.24522
upperneck 2.94181 5.22519 -10.7638
head 1.76971 2.54669 -3.99321
rclavicle -3.10104e-014 2.22639e-014
rhumerus -17.7635 6.17163 -89.5705
rradius 47.0846
rwrist -2.03855
rhand -21.7739 20.5319
rfingers 7.12502
rthumb 4.6271 -9.39758
lclavicle -3.10104e-014 2.22639e-014
lhumerus -25.9702 -3.69332 89.1706
lradius 23.8066
lwrist -26.6503
lhand -29.8413 -18.975
lfingers 7.12502
lthumb -3.16417 10.9813
rfemur -4.80477 -3.21083 17.62
rtibia 31.8599
rfoot -17.2751 9.4303
rtoes -3.4155
lfemur -38.9139 14.993 -14.8531
ltibia 87.901
lfoot -6.72183 6.20625
ltoes -18.4106
7
root -18.995 19.0643 23.0031 170.497 48.5593 -541.846
lowerback 3.0707 -2.17896 7.51911
upperback 12.6639 -2.28052 3.10527
thorax 11.7577 -0.0306204 -0.848067
lowerneck -2.17441 3.54695 3.22752
upperneck 2.87379 5.18659 -10.6822
head 1.72563 2.53115 -3.96298
rclavicle 5.56597e-015 -3.65764e-014
rhumerus -17.6671 6.51117 -89.7011
rradius 47.0367
rwrist -2.07632
rhand -21.6244 20.4406
rfingers 7.12502
rthumb 4.77146 -9.4857
lclavicle 5.56597e-015 -3.65764e-014
lhumerus -25.9583 -3.49421 89.0148
lradius 23.6582
lwrist -26.7535
lhand -29.8129 -18.9894
lfingers 7.12502
lthumb -3.13673 10.9673
rfemur -4.57347 -3.24236 17.6939
rtibia 31.9203
rfoot -17.4814 9.37329
rtoes -3.42295
lfemur -39.2982 14.9718 -14.7921
ltibia 86.8068
lfoot -6.73069 6.65968
ltoes -17.9621
